<?xml version="1.0" standalone="no"?>
<!DOCTYPE svg PUBLIC "-//W3C//DTD SVG 20010904//EN"
 "http://www.w3.org/TR/2001/REC-SVG-20010904/DTD/svg10.dtd">
<svg version="1.0" xmlns="http://www.w3.org/2000/svg"
 width="400.000000pt" height="400.000000pt" viewBox="0 0 400.000000 400.000000"
 preserveAspectRatio="xMidYMid meet">
<metadata>
Created by potrace 1.14, written by Peter Selinger 2001-2017
</metadata>
<g transform="translate(0.000000,400.000000) scale(0.100000,-0.100000)"
fill="#000000" stroke="none">
<path d="M1627 3857 c-2 -6 -3 -45 -2 -86 l3 -73 -48 47 c-62 61 -85 55 -25
-7 25 -26 42 -49 38 -51 -5 -2 -39 -4 -76 -4 -38 0 -73 -5 -79 -11 -9 -9 6
-12 63 -13 40 -1 83 0 94 1 15 1 8 -10 -28 -44 -27 -25 -47 -51 -45 -57 3 -8
8 -7 19 2 8 8 32 30 53 49 l38 35 -2 -45 c-4 -92 0 -141 10 -135 6 3 10 45 10
93 l0 86 46 -47 c26 -25 51 -44 56 -41 6 4 -12 28 -38 55 l-48 49 59 1 c33 1
70 0 82 0 11 -1 24 3 28 8 7 12 1 13 -98 13 l-69 1 46 46 c25 26 46 50 46 54
0 18 -23 3 -65 -40 l-45 -48 -1 55 c-1 30 0 67 1 82 1 28 -15 46 -23 25z"/>
<path d="M2130 3703 c-157 -118 -384 -368 -517 -568 -165 -247 -303 -568 -347
-806 -27 -142 -17 -381 19 -471 10 -25 -8 -22 -32 5 -57 61 -84 159 -85 310
l0 92 -24 -30 c-65 -81 -142 -264 -173 -412 -25 -113 -22 -389 3 -498 10 -38
19 -79 21 -90 3 -12 14 -47 25 -79 11 -33 20 -61 20 -63 0 -2 -12 3 -27 11
-43 22 -92 75 -114 122 -22 49 -53 160 -51 186 0 10 -3 20 -7 23 -10 5 -7
-272 3 -330 21 -120 66 -262 112 -358 171 -353 481 -576 881 -632 48 -7 256
-7 306 0 183 25 369 87 522 175 259 147 470 403 510 615 14 74 16 95 12 95 -2
0 -22 -30 -43 -66 -48 -83 -139 -173 -214 -213 -32 -17 -61 -31 -64 -31 -3 0
14 21 40 48 122 126 200 295 229 497 7 45 8 249 1 280 -2 11 -7 43 -10 70 -12
91 -42 194 -92 320 -28 71 -42 98 -122 240 -94 165 -163 322 -178 402 -12 67
-6 157 14 211 19 48 19 52 3 52 -30 0 -105 -55 -135 -98 -41 -60 -66 -144 -66
-224 0 -37 -2 -68 -5 -68 -10 0 -65 66 -115 137 -117 167 -183 344 -235 633
-14 77 -13 365 1 455 8 49 13 95 12 102 -2 7 -33 -10 -78 -44z"/>
<path d="M2428 3704 c-5 -4 -8 -23 -8 -41 l0 -34 -22 21 c-30 28 -37 15 -7
-16 l23 -25 -29 5 c-17 3 -37 1 -45 -4 -12 -8 -10 -10 10 -11 14 -1 34 0 45 1
19 2 18 0 -4 -24 -29 -31 -24 -44 7 -16 23 21 34 15 28 -17 -3 -11 0 -26 5
-34 6 -9 9 0 9 30 l0 44 25 -23 c19 -18 25 -20 25 -8 0 9 -7 19 -16 22 -25 10
-5 26 32 26 21 0 33 4 29 10 -3 5 -22 7 -42 4 -37 -6 -38 0 -5 39 22 25 -1 21
-24 -4 l-19 -21 -5 42 c-3 23 -8 38 -12 34z"/>
<path d="M2549 3238 c-1 -13 -1 -52 0 -87 l2 -64 -51 47 c-66 62 -84 49 -20
-15 l49 -49 -74 -1 c-69 -1 -81 -2 -102 -9 -22 -6 51 -16 110 -15 l68 2 -45
-46 c-25 -26 -46 -50 -46 -54 0 -17 21 -4 64 38 l46 46 0 -91 c0 -53 4 -90 10
-90 11 0 12 8 10 105 l-1 69 23 -19 c13 -11 34 -30 47 -42 22 -21 41 -30 41
-19 0 5 -6 12 -58 68 l-33 35 48 1 c111 0 134 2 128 12 -3 6 -45 10 -93 10
l-86 0 47 46 c45 43 57 64 38 64 -4 0 -29 -22 -55 -50 l-46 -49 0 84 c0 46 -4
87 -10 90 -5 3 -11 -4 -11 -17z"/>
<path d="M1270 3184 c0 -19 4 -33 8 -30 12 7 13 66 1 66 -5 0 -9 -16 -9 -36z"/>
<path d="M1235 3155 c14 -14 25 -27 25 -29 0 -1 -18 -1 -40 1 -22 2 -40 -2
-40 -7 0 -6 19 -10 42 -10 l41 0 -23 -20 c-13 -11 -20 -23 -17 -27 4 -3 16 2
27 12 21 19 23 16 20 -27 -1 -16 3 -28 9 -28 6 0 11 16 11 37 0 36 0 36 20 18
11 -10 23 -15 27 -11 4 4 -3 16 -17 26 l-25 20 37 0 c20 0 40 5 44 11 5 8 -4
10 -30 7 -41 -5 -43 -2 -19 24 24 27 8 34 -23 9 l-27 -21 -22 20 c-31 29 -50
25 -20 -5z"/>
<path d="M999 2770 c-1 -19 -1 -59 -1 -88 l0 -53 -51 48 c-28 26 -52 42 -54
36 -3 -7 17 -32 44 -57 l48 -46 -50 -1 c-27 0 -67 -1 -87 -1 -21 0 -38 -4 -38
-8 0 -11 36 -16 108 -15 34 0 62 0 62 -2 0 -1 -20 -23 -45 -47 -25 -25 -45
-48 -45 -51 0 -15 23 -1 64 40 l46 44 0 -84 c0 -46 4 -86 9 -89 13 -8 18 21
15 97 -2 37 -1 67 0 67 2 0 23 -18 47 -40 24 -22 47 -40 51 -40 17 0 6 18 -32
55 -44 43 -49 56 -22 53 9 -1 48 0 87 0 49 2 66 5 58 13 -6 6 -42 9 -91 7 -89
-3 -90 -3 -23 58 18 18 31 38 29 45 -3 9 -22 -4 -55 -37 l-51 -50 -1 80 c0 44
-5 84 -11 90 -7 7 -10 -1 -11 -24z"/>
</g>
</svg>
